<?xml version="1.0" encoding="UTF-8" standalone="no"?>
<!-- Generator: Adobe Illustrator 19.0.0, SVG Export Plug-In . SVG Version: 6.00 Build 0)  -->

<svg
   xmlns:dc="http://purl.org/dc/elements/1.1/"
   xmlns:cc="http://creativecommons.org/ns#"
   xmlns:rdf="http://www.w3.org/1999/02/22-rdf-syntax-ns#"
   xmlns:svg="http://www.w3.org/2000/svg"
   xmlns="http://www.w3.org/2000/svg"
   xmlns:sodipodi="http://sodipodi.sourceforge.net/DTD/sodipodi-0.dtd"
   xmlns:inkscape="http://www.inkscape.org/namespaces/inkscape"
   version="1.1"
   id="Capa_1"
   x="0px"
   y="0px"
   viewBox="0 0 512 512"
   style="enable-background:new 0 0 512 512;"
   xml:space="preserve"
   sodipodi:docname="css3-logo.svg"
   inkscape:version="0.92.4 (5da689c313, 2019-01-14)"><metadata
   id="metadata4261"><rdf:RDF><cc:Work
       rdf:about=""><dc:format>image/svg+xml</dc:format><dc:type
         rdf:resource="http://purl.org/dc/dcmitype/StillImage" /></cc:Work></rdf:RDF></metadata><defs
   id="defs4259" /><sodipodi:namedview
   pagecolor="#ffffff"
   bordercolor="#666666"
   borderopacity="1"
   objecttolerance="10"
   gridtolerance="10"
   guidetolerance="10"
   inkscape:pageopacity="0"
   inkscape:pageshadow="2"
   inkscape:window-width="1920"
   inkscape:window-height="1001"
   id="namedview4257"
   showgrid="false"
   inkscape:zoom="1.5195312"
   inkscape:cx="147.74293"
   inkscape:cy="256"
   inkscape:window-x="-9"
   inkscape:window-y="1341"
   inkscape:window-maximized="1"
   inkscape:current-layer="Capa_1" />
<g
   id="g4224">
	<g
   id="g4222">
		<path
   d="M32,0l40.8,460.8L256,512l183.136-51.168L480,0H32z M392.768,150.688l-5.152,57.888l-15.52,173.568L256,414.208    l-0.064,0.032l-116-32.128l-8.128-90.752h56.832l4.224,47.104l63.072,17.024l0.064-0.064l63.136-17.024l8.608-78.432    l-198.656,0.544l-5.632-53.664l209.056-2.432l4.224-57.44l-218.88,0.608l-3.68-53.376H256h141.824L392.768,150.688z"
   id="path4220" />
	</g>
</g>
<g
   id="g4226">
</g>
<g
   id="g4228">
</g>
<g
   id="g4230">
</g>
<g
   id="g4232">
</g>
<g
   id="g4234">
</g>
<g
   id="g4236">
</g>
<g
   id="g4238">
</g>
<g
   id="g4240">
</g>
<g
   id="g4242">
</g>
<g
   id="g4244">
</g>
<g
   id="g4246">
</g>
<g
   id="g4248">
</g>
<g
   id="g4250">
</g>
<g
   id="g4252">
</g>
<g
   id="g4254">
</g>
<path
   style="fill:#2c3a4f;stroke-width:0.65809768;fill-opacity:0"
   d="M 164.73965,486.1892 C 114.72744,472.18895 73.633505,460.55748 73.419796,460.3415 73.206086,460.12552 64.015243,357.95585 52.9957,233.29779 41.976156,108.63974 32.789456,5.2401028 32.58081,3.5208226 L 32.201453,0.39485861 H 256.01766 479.83386 L 479.45744,3.1917738 C 479.2504,4.7300771 470.03979,108.15554 458.98942,233.02615 c -11.05038,124.87061 -20.30171,227.22468 -20.5585,227.45349 -0.34263,0.3053 -175.54551,49.38602 -181.77282,50.92121 -0.54293,0.13385 -41.90623,-11.21139 -91.91845,-25.21165 z m 149.72064,-87.75977 c 31.73168,-8.74988 57.74532,-15.93339 57.80811,-15.96334 0.0628,-0.0299 5.76311,-63.42726 12.66738,-140.8829 C 391.84006,164.12755 397.67166,99.2 397.89488,97.299743 l 0.40588,-3.455013 H 255.99916 113.69757 l 0.39587,4.113111 c 0.21773,2.262209 1.01271,13.737789 1.76661,25.501289 0.7539,11.76349 1.51661,22.10344 1.69492,22.97766 l 0.32419,1.58948 109.20438,-0.43003 c 86.59858,-0.34101 109.20546,-0.26136 109.20959,0.38481 0.008,1.31838 -4.06838,56.08842 -4.18055,56.16368 -0.0563,0.0378 -47.04111,0.5898 -104.41078,1.22676 -57.36967,0.63696 -104.36805,1.20858 -104.44087,1.27026 -0.16684,0.14132 4.9417,49.33995 5.41781,52.17697 l 0.35154,2.09482 99.02213,-0.39049 99.02214,-0.3905 -0.0386,2.24427 c -0.0212,1.23434 -1.87211,18.79038 -4.11311,39.0134 l -4.07455,36.76914 -31.48455,8.49089 -31.48455,8.49089 -31.36378,-8.46884 -31.36378,-8.46884 -2.10021,-22.97114 c -1.15511,-12.63413 -2.11758,-23.19325 -2.13881,-23.46471 -0.0212,-0.27147 -12.92088,-0.49357 -28.66586,-0.49357 -21.96905,0 -28.62725,0.18533 -28.62725,0.79683 0,3.36167 8.09314,89.78723 8.43928,90.12189 0.55815,0.53965 113.85637,32.01975 115.50173,32.09234 0.66318,0.0293 27.16807,-7.10579 58.89974,-15.85567 z"
   id="path4263"
   inkscape:connector-curvature="0" /><path
   style="fill:#2c3a4f;fill-opacity:0;stroke-width:0.65809768"
   d="M 164.32699,486.10551 73.180463,460.57944 72.960939,458.35348 C 72.840202,457.12919 63.658127,353.6617 52.556329,228.42571 L 32.371241,0.72390746 255.74319,0.55842372 C 378.59776,0.4674077 479.228,0.50580592 479.36595,0.64375313 479.68606,0.96387021 439.6439,453.80773 438.94572,457.76321 l -0.52104,2.9519 -91.14653,25.48963 c -50.13059,14.01931 -91.2946,25.47551 -91.47558,25.45824 -0.18098,-0.0172 -41.34499,-11.51813 -91.47558,-25.55747 z m 150.00614,-87.65698 c 31.69303,-8.73937 57.71292,-15.96075 57.82199,-16.04749 0.10906,-0.0867 1.06641,-9.74251 2.12744,-21.45727 5.1794,-57.18544 23.66911,-264.936123 23.66911,-265.946494 0,-1.094436 -7.16512,-1.152546 -142.1181,-1.152546 H 113.71548 l 0.31193,3.125964 c 0.17157,1.71928 0.89464,12.010286 1.60683,22.868896 0.71219,10.85861 1.4751,21.6427 1.69536,23.96465 l 0.40048,4.22171 109.18021,-0.42783 109.1802,-0.42782 -0.0141,2.78709 c -0.0185,3.65131 -3.78369,53.87173 -4.0549,54.08451 -0.20018,0.15705 -193.91875,2.39885 -203.72533,2.3576 l -4.77117,-0.0201 0.006,2.13882 c 0.003,1.17635 1.18798,13.37136 2.63239,27.10003 1.44442,13.72867 2.62621,25.0361 2.62621,25.12762 0,0.0915 44.74007,-0.009 99.42237,-0.22356 l 99.42237,-0.38997 -0.38433,2.24435 c -0.21139,1.2344 -2.17443,18.68035 -4.36233,38.76878 -2.18789,20.08843 -4.18431,36.7004 -4.43649,36.91548 -0.25218,0.21509 -14.43049,4.1481 -31.50736,8.74003 l -31.04885,8.34897 -31.14138,-8.37209 c -17.12776,-4.60465 -31.25229,-8.45115 -31.38785,-8.54777 -0.13557,-0.0966 -1.1733,-10.62724 -2.30608,-23.40136 l -2.05935,-23.22568 -28.77967,-0.17143 -28.77967,-0.17143 0.38215,3.79097 c 0.21019,2.08503 2.05687,22.58224 4.10375,45.54935 l 3.72159,41.75839 57.2545,15.92259 c 31.48997,8.75741 57.82873,15.95278 58.53055,15.98968 0.70184,0.0369 27.20672,-7.08329 58.89975,-15.82267 z"
   id="path5070"
   inkscape:connector-curvature="0" /><path
   style="fill:#2c3a4f;fill-opacity:0;stroke-width:0.65809768"
   d="M 164.32699,486.10551 73.180463,460.57944 72.960939,458.35348 C 72.840202,457.12919 63.658127,353.6617 52.556329,228.42571 L 32.371241,0.72390746 255.74319,0.55842372 C 378.59776,0.4674077 479.228,0.50580592 479.36595,0.64375313 479.68606,0.96387021 439.6439,453.80773 438.94572,457.76321 l -0.52104,2.9519 -91.14653,25.48963 c -50.13059,14.01931 -91.2946,25.47551 -91.47558,25.45824 -0.18098,-0.0172 -41.34499,-11.51813 -91.47558,-25.55747 z m 150.00614,-87.65698 c 31.69303,-8.73937 57.71292,-15.96075 57.82199,-16.04749 0.10906,-0.0867 1.06641,-9.74251 2.12744,-21.45727 5.1794,-57.18544 23.66911,-264.936123 23.66911,-265.946494 0,-1.094436 -7.16512,-1.152546 -142.1181,-1.152546 H 113.71548 l 0.31193,3.125964 c 0.17157,1.71928 0.89464,12.010286 1.60683,22.868896 0.71219,10.85861 1.4751,21.6427 1.69536,23.96465 l 0.40048,4.22171 109.18021,-0.42783 109.1802,-0.42782 -0.0141,2.78709 c -0.0185,3.65131 -3.78369,53.87173 -4.0549,54.08451 -0.20018,0.15705 -193.91875,2.39885 -203.72533,2.3576 l -4.77117,-0.0201 0.006,2.13882 c 0.003,1.17635 1.18798,13.37136 2.63239,27.10003 1.44442,13.72867 2.62621,25.0361 2.62621,25.12762 0,0.0915 44.74007,-0.009 99.42237,-0.22356 l 99.42237,-0.38997 -0.38433,2.24435 c -0.21139,1.2344 -2.17443,18.68035 -4.36233,38.76878 -2.18789,20.08843 -4.18431,36.7004 -4.43649,36.91548 -0.25218,0.21509 -14.43049,4.1481 -31.50736,8.74003 l -31.04885,8.34897 -31.14138,-8.37209 c -17.12776,-4.60465 -31.25229,-8.45115 -31.38785,-8.54777 -0.13557,-0.0966 -1.1733,-10.62724 -2.30608,-23.40136 l -2.05935,-23.22568 -28.77967,-0.17143 -28.77967,-0.17143 0.38215,3.79097 c 0.21019,2.08503 2.05687,22.58224 4.10375,45.54935 l 3.72159,41.75839 57.2545,15.92259 c 31.48997,8.75741 57.82873,15.95278 58.53055,15.98968 0.70184,0.0369 27.20672,-7.08329 58.89975,-15.82267 z"
   id="path5072"
   inkscape:connector-curvature="0" /><path
   style="fill:#2c3a4f;fill-opacity:0;stroke-width:0.65809768"
   d="M 164.32699,486.10551 73.180463,460.57944 72.960939,458.35348 C 72.840202,457.12919 63.658127,353.6617 52.556329,228.42571 L 32.371241,0.72390746 255.74319,0.55842372 C 378.59776,0.4674077 479.228,0.50580592 479.36595,0.64375313 479.68606,0.96387021 439.6439,453.80773 438.94572,457.76321 l -0.52104,2.9519 -91.14653,25.48963 c -50.13059,14.01931 -91.2946,25.47551 -91.47558,25.45824 -0.18098,-0.0172 -41.34499,-11.51813 -91.47558,-25.55747 z m 150.00614,-87.65698 c 31.69303,-8.73937 57.71292,-15.96075 57.82199,-16.04749 0.10906,-0.0867 1.06641,-9.74251 2.12744,-21.45727 5.1794,-57.18544 23.66911,-264.936123 23.66911,-265.946494 0,-1.094436 -7.16512,-1.152546 -142.1181,-1.152546 H 113.71548 l 0.31193,3.125964 c 0.17157,1.71928 0.89464,12.010286 1.60683,22.868896 0.71219,10.85861 1.4751,21.6427 1.69536,23.96465 l 0.40048,4.22171 109.18021,-0.42783 109.1802,-0.42782 -0.0141,2.78709 c -0.0185,3.65131 -3.78369,53.87173 -4.0549,54.08451 -0.20018,0.15705 -193.91875,2.39885 -203.72533,2.3576 l -4.77117,-0.0201 0.006,2.13882 c 0.003,1.17635 1.18798,13.37136 2.63239,27.10003 1.44442,13.72867 2.62621,25.0361 2.62621,25.12762 0,0.0915 44.74007,-0.009 99.42237,-0.22356 l 99.42237,-0.38997 -0.38433,2.24435 c -0.21139,1.2344 -2.17443,18.68035 -4.36233,38.76878 -2.18789,20.08843 -4.18431,36.7004 -4.43649,36.91548 -0.25218,0.21509 -14.43049,4.1481 -31.50736,8.74003 l -31.04885,8.34897 -31.14138,-8.37209 c -17.12776,-4.60465 -31.25229,-8.45115 -31.38785,-8.54777 -0.13557,-0.0966 -1.1733,-10.62724 -2.30608,-23.40136 l -2.05935,-23.22568 -28.77967,-0.17143 -28.77967,-0.17143 0.38215,3.79097 c 0.21019,2.08503 2.05687,22.58224 4.10375,45.54935 l 3.72159,41.75839 57.2545,15.92259 c 31.48997,8.75741 57.82873,15.95278 58.53055,15.98968 0.70184,0.0369 27.20672,-7.08329 58.89975,-15.82267 z"
   id="path5074"
   inkscape:connector-curvature="0" /><path
   style="fill:#2c3a4f;fill-opacity:0;stroke-width:0.65809768"
   d="m 197.23188,397.7356 c -31.309,-8.6998 -56.95748,-15.85276 -56.99663,-15.89548 -0.0392,-0.0427 -1.74927,-19.17894 -3.80027,-42.52495 -2.051,-23.34602 -3.8959,-43.55784 -4.09978,-44.91517 l -0.37069,-2.46787 h 28.22224 28.22224 l 2.06453,23.13218 c 1.24514,13.95117 2.35223,23.30999 2.78942,23.58018 0.39868,0.2464 14.70724,4.20457 31.79678,8.79593 l 31.0719,8.34792 31.49365,-8.52543 c 17.3215,-4.68899 31.57325,-8.61756 31.67053,-8.73016 0.0973,-0.1126 2.00424,-17.08494 4.23766,-37.7163 2.23341,-20.63136 4.22986,-38.375 4.43653,-39.4303 l 0.37577,-1.91874 -99.44897,0.44878 c -54.69694,0.24684 -99.46855,0.22184 -99.49248,-0.0555 -0.0239,-0.27739 -1.30485,-12.20203 -2.84649,-26.4992 -1.54164,-14.29717 -2.77847,-26.04642 -2.74851,-26.10944 0.03,-0.0631 46.99109,-0.63008 104.35806,-1.26013 57.36697,-0.63005 104.36915,-1.18698 104.44928,-1.23763 0.20952,-0.13242 4.13194,-53.17925 4.13194,-55.8803 v -2.25797 l -109.18857,0.36953 -109.18857,0.36953 -0.36861,-2.89911 c -0.20274,-1.59451 -0.9668,-12.22764 -1.69791,-23.62918 -0.73111,-11.40155 -1.47304,-21.988694 -1.64874,-23.526997 l -0.31944,-2.796915 h 141.47841 141.47841 l -0.017,1.48072 c -0.0392,3.403131 -25.44168,285.462142 -25.73546,285.755922 -0.58963,0.58963 -114.73066,31.93417 -116.06755,31.87359 -0.72391,-0.0328 -26.93265,-7.17766 -58.24165,-15.87746 z"
   id="path5076"
   inkscape:connector-curvature="0" /><path
   style="fill:#2c3a4f;fill-opacity:0;stroke-width:0.65809768"
   d="M 164.32699,486.10551 73.180463,460.57944 72.960939,458.35348 C 72.840202,457.12919 63.658127,353.6617 52.556329,228.42571 L 32.371241,0.72390746 255.74319,0.55842372 C 378.59776,0.4674077 479.228,0.50580592 479.36595,0.64375313 479.68606,0.96387021 439.6439,453.80773 438.94572,457.76321 l -0.52104,2.9519 -91.14653,25.48963 c -50.13059,14.01931 -91.2946,25.47551 -91.47558,25.45824 -0.18098,-0.0172 -41.34499,-11.51813 -91.47558,-25.55747 z m 150.00614,-87.65698 c 31.69303,-8.73937 57.71292,-15.96075 57.82199,-16.04749 0.10906,-0.0867 1.06641,-9.74251 2.12744,-21.45727 5.1794,-57.18544 23.66911,-264.936123 23.66911,-265.946494 0,-1.094436 -7.16512,-1.152546 -142.1181,-1.152546 H 113.71548 l 0.31193,3.125964 c 0.17157,1.71928 0.89464,12.010286 1.60683,22.868896 0.71219,10.85861 1.4751,21.6427 1.69536,23.96465 l 0.40048,4.22171 109.18021,-0.42783 109.1802,-0.42782 -0.0141,2.78709 c -0.0185,3.65131 -3.78369,53.87173 -4.0549,54.08451 -0.20018,0.15705 -193.91875,2.39885 -203.72533,2.3576 l -4.77117,-0.0201 0.006,2.13882 c 0.003,1.17635 1.18798,13.37136 2.63239,27.10003 1.44442,13.72867 2.62621,25.0361 2.62621,25.12762 0,0.0915 44.74007,-0.009 99.42237,-0.22356 l 99.42237,-0.38997 -0.38433,2.24435 c -0.21139,1.2344 -2.17443,18.68035 -4.36233,38.76878 -2.18789,20.08843 -4.18431,36.7004 -4.43649,36.91548 -0.25218,0.21509 -14.43049,4.1481 -31.50736,8.74003 l -31.04885,8.34897 -31.14138,-8.37209 c -17.12776,-4.60465 -31.25229,-8.45115 -31.38785,-8.54777 -0.13557,-0.0966 -1.1733,-10.62724 -2.30608,-23.40136 l -2.05935,-23.22568 -28.77967,-0.17143 -28.77967,-0.17143 0.38215,3.79097 c 0.21019,2.08503 2.05687,22.58224 4.10375,45.54935 l 3.72159,41.75839 57.2545,15.92259 c 31.48997,8.75741 57.82873,15.95278 58.53055,15.98968 0.70184,0.0369 27.20672,-7.08329 58.89975,-15.82267 z"
   id="path5078"
   inkscape:connector-curvature="0" /><path
   style="fill:#2c3a4f;fill-opacity:0;stroke-width:0.65809768"
   d="M 164.32699,486.10551 73.180463,460.57944 72.960939,458.35348 C 72.840202,457.12919 63.658127,353.6617 52.556329,228.42571 L 32.371241,0.72390746 255.74319,0.55842372 C 378.59776,0.4674077 479.228,0.50580592 479.36595,0.64375313 479.68606,0.96387021 439.6439,453.80773 438.94572,457.76321 l -0.52104,2.9519 -91.14653,25.48963 c -50.13059,14.01931 -91.2946,25.47551 -91.47558,25.45824 -0.18098,-0.0172 -41.34499,-11.51813 -91.47558,-25.55747 z m 150.00614,-87.65698 c 31.69303,-8.73937 57.71292,-15.96075 57.82199,-16.04749 0.10906,-0.0867 1.06641,-9.74251 2.12744,-21.45727 5.1794,-57.18544 23.66911,-264.936123 23.66911,-265.946494 0,-1.094436 -7.16512,-1.152546 -142.1181,-1.152546 H 113.71548 l 0.31193,3.125964 c 0.17157,1.71928 0.89464,12.010286 1.60683,22.868896 0.71219,10.85861 1.4751,21.6427 1.69536,23.96465 l 0.40048,4.22171 109.18021,-0.42783 109.1802,-0.42782 -0.0141,2.78709 c -0.0185,3.65131 -3.78369,53.87173 -4.0549,54.08451 -0.20018,0.15705 -193.91875,2.39885 -203.72533,2.3576 l -4.77117,-0.0201 0.006,2.13882 c 0.003,1.17635 1.18798,13.37136 2.63239,27.10003 1.44442,13.72867 2.62621,25.0361 2.62621,25.12762 0,0.0915 44.74007,-0.009 99.42237,-0.22356 l 99.42237,-0.38997 -0.38433,2.24435 c -0.21139,1.2344 -2.17443,18.68035 -4.36233,38.76878 -2.18789,20.08843 -4.18431,36.7004 -4.43649,36.91548 -0.25218,0.21509 -14.43049,4.1481 -31.50736,8.74003 l -31.04885,8.34897 -31.14138,-8.37209 c -17.12776,-4.60465 -31.25229,-8.45115 -31.38785,-8.54777 -0.13557,-0.0966 -1.1733,-10.62724 -2.30608,-23.40136 l -2.05935,-23.22568 -28.77967,-0.17143 -28.77967,-0.17143 0.38215,3.79097 c 0.21019,2.08503 2.05687,22.58224 4.10375,45.54935 l 3.72159,41.75839 57.2545,15.92259 c 31.48997,8.75741 57.82873,15.95278 58.53055,15.98968 0.70184,0.0369 27.20672,-7.08329 58.89975,-15.82267 z"
   id="path5080"
   inkscape:connector-curvature="0" /><path
   style="fill:#ff0000;fill-opacity:0;stroke-width:0.65809768"
   d="M 164.32699,486.10551 73.180463,460.57944 72.960939,458.35348 C 72.840202,457.12919 63.658127,353.6617 52.556329,228.42571 L 32.371241,0.72390746 255.74319,0.55842372 C 378.59776,0.4674077 479.228,0.50580592 479.36595,0.64375313 479.68606,0.96387021 439.6439,453.80773 438.94572,457.76321 l -0.52104,2.9519 -91.14653,25.48963 c -50.13059,14.01931 -91.2946,25.47551 -91.47558,25.45824 -0.18098,-0.0172 -41.34499,-11.51813 -91.47558,-25.55747 z m 150.00614,-87.65698 c 31.69303,-8.73937 57.71292,-15.96075 57.82199,-16.04749 0.10906,-0.0867 1.06641,-9.74251 2.12744,-21.45727 5.1794,-57.18544 23.66911,-264.936123 23.66911,-265.946494 0,-1.094436 -7.16512,-1.152546 -142.1181,-1.152546 H 113.71548 l 0.31193,3.125964 c 0.17157,1.71928 0.89464,12.010286 1.60683,22.868896 0.71219,10.85861 1.4751,21.6427 1.69536,23.96465 l 0.40048,4.22171 109.18021,-0.42783 109.1802,-0.42782 -0.0141,2.78709 c -0.0185,3.65131 -3.78369,53.87173 -4.0549,54.08451 -0.20018,0.15705 -193.91875,2.39885 -203.72533,2.3576 l -4.77117,-0.0201 0.006,2.13882 c 0.003,1.17635 1.18798,13.37136 2.63239,27.10003 1.44442,13.72867 2.62621,25.0361 2.62621,25.12762 0,0.0915 44.74007,-0.009 99.42237,-0.22356 l 99.42237,-0.38997 -0.38433,2.24435 c -0.21139,1.2344 -2.17443,18.68035 -4.36233,38.76878 -2.18789,20.08843 -4.18431,36.7004 -4.43649,36.91548 -0.25218,0.21509 -14.43049,4.1481 -31.50736,8.74003 l -31.04885,8.34897 -31.14138,-8.37209 c -17.12776,-4.60465 -31.25229,-8.45115 -31.38785,-8.54777 -0.13557,-0.0966 -1.1733,-10.62724 -2.30608,-23.40136 l -2.05935,-23.22568 -28.77967,-0.17143 -28.77967,-0.17143 0.38215,3.79097 c 0.21019,2.08503 2.05687,22.58224 4.10375,45.54935 l 3.72159,41.75839 57.2545,15.92259 c 31.48997,8.75741 57.82873,15.95278 58.53055,15.98968 0.70184,0.0369 27.20672,-7.08329 58.89975,-15.82267 z"
   id="path5082"
   inkscape:connector-curvature="0" /><path
   style="fill:#2c3a4f;fill-opacity:0;stroke-width:0.65809768"
   d="M 164.32699,486.10551 73.180463,460.57944 72.960939,458.35348 C 72.840202,457.12919 63.658127,353.6617 52.556329,228.42571 L 32.371241,0.72390746 255.74319,0.55842372 C 378.59776,0.4674077 479.228,0.50580592 479.36595,0.64375313 479.68606,0.96387021 439.6439,453.80773 438.94572,457.76321 l -0.52104,2.9519 -91.14653,25.48963 c -50.13059,14.01931 -91.2946,25.47551 -91.47558,25.45824 -0.18098,-0.0172 -41.34499,-11.51813 -91.47558,-25.55747 z m 150.00614,-87.65698 c 31.69303,-8.73937 57.71292,-15.96075 57.82199,-16.04749 0.10906,-0.0867 1.06641,-9.74251 2.12744,-21.45727 5.1794,-57.18544 23.66911,-264.936123 23.66911,-265.946494 0,-1.094436 -7.16512,-1.152546 -142.1181,-1.152546 H 113.71548 l 0.31193,3.125964 c 0.17157,1.71928 0.89464,12.010286 1.60683,22.868896 0.71219,10.85861 1.4751,21.6427 1.69536,23.96465 l 0.40048,4.22171 109.18021,-0.42783 109.1802,-0.42782 -0.0141,2.78709 c -0.0185,3.65131 -3.78369,53.87173 -4.0549,54.08451 -0.20018,0.15705 -193.91875,2.39885 -203.72533,2.3576 l -4.77117,-0.0201 0.006,2.13882 c 0.003,1.17635 1.18798,13.37136 2.63239,27.10003 1.44442,13.72867 2.62621,25.0361 2.62621,25.12762 0,0.0915 44.74007,-0.009 99.42237,-0.22356 l 99.42237,-0.38997 -0.38433,2.24435 c -0.21139,1.2344 -2.17443,18.68035 -4.36233,38.76878 -2.18789,20.08843 -4.18431,36.7004 -4.43649,36.91548 -0.25218,0.21509 -14.43049,4.1481 -31.50736,8.74003 l -31.04885,8.34897 -31.14138,-8.37209 c -17.12776,-4.60465 -31.25229,-8.45115 -31.38785,-8.54777 -0.13557,-0.0966 -1.1733,-10.62724 -2.30608,-23.40136 l -2.05935,-23.22568 -28.77967,-0.17143 -28.77967,-0.17143 0.38215,3.79097 c 0.21019,2.08503 2.05687,22.58224 4.10375,45.54935 l 3.72159,41.75839 57.2545,15.92259 c 31.48997,8.75741 57.82873,15.95278 58.53055,15.98968 0.70184,0.0369 27.20672,-7.08329 58.89975,-15.82267 z"
   id="path5084"
   inkscape:connector-curvature="0" /><path
   style="fill:#2c3a4f;fill-opacity:0;stroke-width:0.65809768;opacity:0"
   d="M 164.32699,486.10551 73.180463,460.57944 72.960939,458.35348 C 72.840202,457.12919 63.658127,353.6617 52.556329,228.42571 L 32.371241,0.72390746 255.74319,0.55842372 C 378.59776,0.4674077 479.228,0.50580592 479.36595,0.64375313 479.68606,0.96387021 439.6439,453.80773 438.94572,457.76321 l -0.52104,2.9519 -91.14653,25.48963 c -50.13059,14.01931 -91.2946,25.47551 -91.47558,25.45824 -0.18098,-0.0172 -41.34499,-11.51813 -91.47558,-25.55747 z m 150.00614,-87.65698 c 31.69303,-8.73937 57.71292,-15.96075 57.82199,-16.04749 0.10906,-0.0867 1.06641,-9.74251 2.12744,-21.45727 5.1794,-57.18544 23.66911,-264.936123 23.66911,-265.946494 0,-1.094436 -7.16512,-1.152546 -142.1181,-1.152546 H 113.71548 l 0.31193,3.125964 c 0.17157,1.71928 0.89464,12.010286 1.60683,22.868896 0.71219,10.85861 1.4751,21.6427 1.69536,23.96465 l 0.40048,4.22171 109.18021,-0.42783 109.1802,-0.42782 -0.0141,2.78709 c -0.0185,3.65131 -3.78369,53.87173 -4.0549,54.08451 -0.20018,0.15705 -193.91875,2.39885 -203.72533,2.3576 l -4.77117,-0.0201 0.006,2.13882 c 0.003,1.17635 1.18798,13.37136 2.63239,27.10003 1.44442,13.72867 2.62621,25.0361 2.62621,25.12762 0,0.0915 44.74007,-0.009 99.42237,-0.22356 l 99.42237,-0.38997 -0.38433,2.24435 c -0.21139,1.2344 -2.17443,18.68035 -4.36233,38.76878 -2.18789,20.08843 -4.18431,36.7004 -4.43649,36.91548 -0.25218,0.21509 -14.43049,4.1481 -31.50736,8.74003 l -31.04885,8.34897 -31.14138,-8.37209 c -17.12776,-4.60465 -31.25229,-8.45115 -31.38785,-8.54777 -0.13557,-0.0966 -1.1733,-10.62724 -2.30608,-23.40136 l -2.05935,-23.22568 -28.77967,-0.17143 -28.77967,-0.17143 0.38215,3.79097 c 0.21019,2.08503 2.05687,22.58224 4.10375,45.54935 l 3.72159,41.75839 57.2545,15.92259 c 31.48997,8.75741 57.82873,15.95278 58.53055,15.98968 0.70184,0.0369 27.20672,-7.08329 58.89975,-15.82267 z"
   id="path5086"
   inkscape:connector-curvature="0" /><path
   style="opacity:1;fill:#2c3a4f;fill-opacity:0;stroke-width:0.65809768"
   d="M 164.32699,486.10551 73.180463,460.57944 72.960939,458.35348 C 72.840202,457.12919 63.658127,353.6617 52.556329,228.42571 L 32.371241,0.72390746 255.74319,0.55842372 C 378.59776,0.4674077 479.228,0.50580592 479.36595,0.64375313 479.68606,0.96387021 439.6439,453.80773 438.94572,457.76321 l -0.52104,2.9519 -91.14653,25.48963 c -50.13059,14.01931 -91.2946,25.47551 -91.47558,25.45824 -0.18098,-0.0172 -41.34499,-11.51813 -91.47558,-25.55747 z m 150.00614,-87.65698 c 31.69303,-8.73937 57.71292,-15.96075 57.82199,-16.04749 0.10906,-0.0867 1.06641,-9.74251 2.12744,-21.45727 5.1794,-57.18544 23.66911,-264.936123 23.66911,-265.946494 0,-1.094436 -7.16512,-1.152546 -142.1181,-1.152546 H 113.71548 l 0.31193,3.125964 c 0.17157,1.71928 0.89464,12.010286 1.60683,22.868896 0.71219,10.85861 1.4751,21.6427 1.69536,23.96465 l 0.40048,4.22171 109.18021,-0.42783 109.1802,-0.42782 -0.0141,2.78709 c -0.0185,3.65131 -3.78369,53.87173 -4.0549,54.08451 -0.20018,0.15705 -193.91875,2.39885 -203.72533,2.3576 l -4.77117,-0.0201 0.006,2.13882 c 0.003,1.17635 1.18798,13.37136 2.63239,27.10003 1.44442,13.72867 2.62621,25.0361 2.62621,25.12762 0,0.0915 44.74007,-0.009 99.42237,-0.22356 l 99.42237,-0.38997 -0.38433,2.24435 c -0.21139,1.2344 -2.17443,18.68035 -4.36233,38.76878 -2.18789,20.08843 -4.18431,36.7004 -4.43649,36.91548 -0.25218,0.21509 -14.43049,4.1481 -31.50736,8.74003 l -31.04885,8.34897 -31.14138,-8.37209 c -17.12776,-4.60465 -31.25229,-8.45115 -31.38785,-8.54777 -0.13557,-0.0966 -1.1733,-10.62724 -2.30608,-23.40136 l -2.05935,-23.22568 -28.77967,-0.17143 -28.77967,-0.17143 0.38215,3.79097 c 0.21019,2.08503 2.05687,22.58224 4.10375,45.54935 l 3.72159,41.75839 57.2545,15.92259 c 31.48997,8.75741 57.82873,15.95278 58.53055,15.98968 0.70184,0.0369 27.20672,-7.08329 58.89975,-15.82267 z"
   id="path5088"
   inkscape:connector-curvature="0" /><path
   style="opacity:1;fill:#2c3ab5;fill-opacity:0;stroke-width:0.65809768"
   d="M 164.32699,486.10551 73.180463,460.57944 72.960939,458.35348 C 72.840202,457.12919 63.658127,353.6617 52.556329,228.42571 L 32.371241,0.72390746 255.74319,0.55842372 C 378.59776,0.4674077 479.228,0.50580592 479.36595,0.64375313 479.68606,0.96387021 439.6439,453.80773 438.94572,457.76321 l -0.52104,2.9519 -91.14653,25.48963 c -50.13059,14.01931 -91.2946,25.47551 -91.47558,25.45824 -0.18098,-0.0172 -41.34499,-11.51813 -91.47558,-25.55747 z m 150.00614,-87.65698 c 31.69303,-8.73937 57.71292,-15.96075 57.82199,-16.04749 0.10906,-0.0867 1.06641,-9.74251 2.12744,-21.45727 5.1794,-57.18544 23.66911,-264.936123 23.66911,-265.946494 0,-1.094436 -7.16512,-1.152546 -142.1181,-1.152546 H 113.71548 l 0.31193,3.125964 c 0.17157,1.71928 0.89464,12.010286 1.60683,22.868896 0.71219,10.85861 1.4751,21.6427 1.69536,23.96465 l 0.40048,4.22171 109.18021,-0.42783 109.1802,-0.42782 -0.0141,2.78709 c -0.0185,3.65131 -3.78369,53.87173 -4.0549,54.08451 -0.20018,0.15705 -193.91875,2.39885 -203.72533,2.3576 l -4.77117,-0.0201 0.006,2.13882 c 0.003,1.17635 1.18798,13.37136 2.63239,27.10003 1.44442,13.72867 2.62621,25.0361 2.62621,25.12762 0,0.0915 44.74007,-0.009 99.42237,-0.22356 l 99.42237,-0.38997 -0.38433,2.24435 c -0.21139,1.2344 -2.17443,18.68035 -4.36233,38.76878 -2.18789,20.08843 -4.18431,36.7004 -4.43649,36.91548 -0.25218,0.21509 -14.43049,4.1481 -31.50736,8.74003 l -31.04885,8.34897 -31.14138,-8.37209 c -17.12776,-4.60465 -31.25229,-8.45115 -31.38785,-8.54777 -0.13557,-0.0966 -1.1733,-10.62724 -2.30608,-23.40136 l -2.05935,-23.22568 -28.77967,-0.17143 -28.77967,-0.17143 0.38215,3.79097 c 0.21019,2.08503 2.05687,22.58224 4.10375,45.54935 l 3.72159,41.75839 57.2545,15.92259 c 31.48997,8.75741 57.82873,15.95278 58.53055,15.98968 0.70184,0.0369 27.20672,-7.08329 58.89975,-15.82267 z"
   id="path5090"
   inkscape:connector-curvature="0" /><path
   style="opacity:1;fill:#2c3ab5;fill-opacity:0;stroke-width:0.65809768"
   d="M 164.32699,486.10551 73.180463,460.57944 72.960939,458.35348 C 72.840202,457.12919 63.658127,353.6617 52.556329,228.42571 L 32.371241,0.72390746 255.74319,0.55842372 C 378.59776,0.4674077 479.228,0.50580592 479.36595,0.64375313 479.68606,0.96387021 439.6439,453.80773 438.94572,457.76321 l -0.52104,2.9519 -91.14653,25.48963 c -50.13059,14.01931 -91.2946,25.47551 -91.47558,25.45824 -0.18098,-0.0172 -41.34499,-11.51813 -91.47558,-25.55747 z m 150.00614,-87.65698 c 31.69303,-8.73937 57.71292,-15.96075 57.82199,-16.04749 0.10906,-0.0867 1.06641,-9.74251 2.12744,-21.45727 5.1794,-57.18544 23.66911,-264.936123 23.66911,-265.946494 0,-1.094436 -7.16512,-1.152546 -142.1181,-1.152546 H 113.71548 l 0.31193,3.125964 c 0.17157,1.71928 0.89464,12.010286 1.60683,22.868896 0.71219,10.85861 1.4751,21.6427 1.69536,23.96465 l 0.40048,4.22171 109.18021,-0.42783 109.1802,-0.42782 -0.0141,2.78709 c -0.0185,3.65131 -3.78369,53.87173 -4.0549,54.08451 -0.20018,0.15705 -193.91875,2.39885 -203.72533,2.3576 l -4.77117,-0.0201 0.006,2.13882 c 0.003,1.17635 1.18798,13.37136 2.63239,27.10003 1.44442,13.72867 2.62621,25.0361 2.62621,25.12762 0,0.0915 44.74007,-0.009 99.42237,-0.22356 l 99.42237,-0.38997 -0.38433,2.24435 c -0.21139,1.2344 -2.17443,18.68035 -4.36233,38.76878 -2.18789,20.08843 -4.18431,36.7004 -4.43649,36.91548 -0.25218,0.21509 -14.43049,4.1481 -31.50736,8.74003 l -31.04885,8.34897 -31.14138,-8.37209 c -17.12776,-4.60465 -31.25229,-8.45115 -31.38785,-8.54777 -0.13557,-0.0966 -1.1733,-10.62724 -2.30608,-23.40136 l -2.05935,-23.22568 -28.77967,-0.17143 -28.77967,-0.17143 0.38215,3.79097 c 0.21019,2.08503 2.05687,22.58224 4.10375,45.54935 l 3.72159,41.75839 57.2545,15.92259 c 31.48997,8.75741 57.82873,15.95278 58.53055,15.98968 0.70184,0.0369 27.20672,-7.08329 58.89975,-15.82267 z"
   id="path5094"
   inkscape:connector-curvature="0" /><path
   style="opacity:1;fill:#2c3ab5;fill-opacity:0;stroke-width:0.65809768"
   d="M 164.32699,486.10551 73.180463,460.57944 72.960939,458.35348 C 72.840202,457.12919 63.658127,353.6617 52.556329,228.42571 L 32.371241,0.72390746 255.74319,0.55842372 C 378.59776,0.4674077 479.228,0.50580592 479.36595,0.64375313 479.68606,0.96387021 439.6439,453.80773 438.94572,457.76321 l -0.52104,2.9519 -91.14653,25.48963 c -50.13059,14.01931 -91.2946,25.47551 -91.47558,25.45824 -0.18098,-0.0172 -41.34499,-11.51813 -91.47558,-25.55747 z m 150.00614,-87.65698 c 31.69303,-8.73937 57.71292,-15.96075 57.82199,-16.04749 0.10906,-0.0867 1.06641,-9.74251 2.12744,-21.45727 5.1794,-57.18544 23.66911,-264.936123 23.66911,-265.946494 0,-1.094436 -7.16512,-1.152546 -142.1181,-1.152546 H 113.71548 l 0.31193,3.125964 c 0.17157,1.71928 0.89464,12.010286 1.60683,22.868896 0.71219,10.85861 1.4751,21.6427 1.69536,23.96465 l 0.40048,4.22171 109.18021,-0.42783 109.1802,-0.42782 -0.0141,2.78709 c -0.0185,3.65131 -3.78369,53.87173 -4.0549,54.08451 -0.20018,0.15705 -193.91875,2.39885 -203.72533,2.3576 l -4.77117,-0.0201 0.006,2.13882 c 0.003,1.17635 1.18798,13.37136 2.63239,27.10003 1.44442,13.72867 2.62621,25.0361 2.62621,25.12762 0,0.0915 44.74007,-0.009 99.42237,-0.22356 l 99.42237,-0.38997 -0.38433,2.24435 c -0.21139,1.2344 -2.17443,18.68035 -4.36233,38.76878 -2.18789,20.08843 -4.18431,36.7004 -4.43649,36.91548 -0.25218,0.21509 -14.43049,4.1481 -31.50736,8.74003 l -31.04885,8.34897 -31.14138,-8.37209 c -17.12776,-4.60465 -31.25229,-8.45115 -31.38785,-8.54777 -0.13557,-0.0966 -1.1733,-10.62724 -2.30608,-23.40136 l -2.05935,-23.22568 -28.77967,-0.17143 -28.77967,-0.17143 0.38215,3.79097 c 0.21019,2.08503 2.05687,22.58224 4.10375,45.54935 l 3.72159,41.75839 57.2545,15.92259 c 31.48997,8.75741 57.82873,15.95278 58.53055,15.98968 0.70184,0.0369 27.20672,-7.08329 58.89975,-15.82267 z"
   id="path5096"
   inkscape:connector-curvature="0" /><path
   style="opacity:1;fill:#2c3ab5;fill-opacity:0;stroke-width:0.65809768"
   d="M 164.32699,486.10551 73.180463,460.57944 72.960939,458.35348 C 72.840202,457.12919 63.658127,353.6617 52.556329,228.42571 L 32.371241,0.72390746 255.74319,0.55842372 C 378.59776,0.4674077 479.228,0.50580592 479.36595,0.64375313 479.68606,0.96387021 439.6439,453.80773 438.94572,457.76321 l -0.52104,2.9519 -91.14653,25.48963 c -50.13059,14.01931 -91.2946,25.47551 -91.47558,25.45824 -0.18098,-0.0172 -41.34499,-11.51813 -91.47558,-25.55747 z m 150.00614,-87.65698 c 31.69303,-8.73937 57.71292,-15.96075 57.82199,-16.04749 0.10906,-0.0867 1.06641,-9.74251 2.12744,-21.45727 5.1794,-57.18544 23.66911,-264.936123 23.66911,-265.946494 0,-1.094436 -7.16512,-1.152546 -142.1181,-1.152546 H 113.71548 l 0.31193,3.125964 c 0.17157,1.71928 0.89464,12.010286 1.60683,22.868896 0.71219,10.85861 1.4751,21.6427 1.69536,23.96465 l 0.40048,4.22171 109.18021,-0.42783 109.1802,-0.42782 -0.0141,2.78709 c -0.0185,3.65131 -3.78369,53.87173 -4.0549,54.08451 -0.20018,0.15705 -193.91875,2.39885 -203.72533,2.3576 l -4.77117,-0.0201 0.006,2.13882 c 0.003,1.17635 1.18798,13.37136 2.63239,27.10003 1.44442,13.72867 2.62621,25.0361 2.62621,25.12762 0,0.0915 44.74007,-0.009 99.42237,-0.22356 l 99.42237,-0.38997 -0.38433,2.24435 c -0.21139,1.2344 -2.17443,18.68035 -4.36233,38.76878 -2.18789,20.08843 -4.18431,36.7004 -4.43649,36.91548 -0.25218,0.21509 -14.43049,4.1481 -31.50736,8.74003 l -31.04885,8.34897 -31.14138,-8.37209 c -17.12776,-4.60465 -31.25229,-8.45115 -31.38785,-8.54777 -0.13557,-0.0966 -1.1733,-10.62724 -2.30608,-23.40136 l -2.05935,-23.22568 -28.77967,-0.17143 -28.77967,-0.17143 0.38215,3.79097 c 0.21019,2.08503 2.05687,22.58224 4.10375,45.54935 l 3.72159,41.75839 57.2545,15.92259 c 31.48997,8.75741 57.82873,15.95278 58.53055,15.98968 0.70184,0.0369 27.20672,-7.08329 58.89975,-15.82267 z"
   id="path5098"
   inkscape:connector-curvature="0" /><path
   style="opacity:1;fill:#000000;fill-opacity:0;stroke-width:0.65809768"
   d="M 164.32699,486.10551 73.180463,460.57944 72.960939,458.35348 C 72.840202,457.12919 63.658127,353.6617 52.556329,228.42571 L 32.371241,0.72390746 255.74319,0.55842372 C 378.59776,0.4674077 479.228,0.50580592 479.36595,0.64375313 479.68606,0.96387021 439.6439,453.80773 438.94572,457.76321 l -0.52104,2.9519 -91.14653,25.48963 c -50.13059,14.01931 -91.2946,25.47551 -91.47558,25.45824 -0.18098,-0.0172 -41.34499,-11.51813 -91.47558,-25.55747 z m 150.00614,-87.65698 c 31.69303,-8.73937 57.71292,-15.96075 57.82199,-16.04749 0.10906,-0.0867 1.06641,-9.74251 2.12744,-21.45727 5.1794,-57.18544 23.66911,-264.936123 23.66911,-265.946494 0,-1.094436 -7.16512,-1.152546 -142.1181,-1.152546 H 113.71548 l 0.31193,3.125964 c 0.17157,1.71928 0.89464,12.010286 1.60683,22.868896 0.71219,10.85861 1.4751,21.6427 1.69536,23.96465 l 0.40048,4.22171 109.18021,-0.42783 109.1802,-0.42782 -0.0141,2.78709 c -0.0185,3.65131 -3.78369,53.87173 -4.0549,54.08451 -0.20018,0.15705 -193.91875,2.39885 -203.72533,2.3576 l -4.77117,-0.0201 0.006,2.13882 c 0.003,1.17635 1.18798,13.37136 2.63239,27.10003 1.44442,13.72867 2.62621,25.0361 2.62621,25.12762 0,0.0915 44.74007,-0.009 99.42237,-0.22356 l 99.42237,-0.38997 -0.38433,2.24435 c -0.21139,1.2344 -2.17443,18.68035 -4.36233,38.76878 -2.18789,20.08843 -4.18431,36.7004 -4.43649,36.91548 -0.25218,0.21509 -14.43049,4.1481 -31.50736,8.74003 l -31.04885,8.34897 -31.14138,-8.37209 c -17.12776,-4.60465 -31.25229,-8.45115 -31.38785,-8.54777 -0.13557,-0.0966 -1.1733,-10.62724 -2.30608,-23.40136 l -2.05935,-23.22568 -28.77967,-0.17143 -28.77967,-0.17143 0.38215,3.79097 c 0.21019,2.08503 2.05687,22.58224 4.10375,45.54935 l 3.72159,41.75839 57.2545,15.92259 c 31.48997,8.75741 57.82873,15.95278 58.53055,15.98968 0.70184,0.0369 27.20672,-7.08329 58.89975,-15.82267 z"
   id="path5100"
   inkscape:connector-curvature="0" /><path
   style="opacity:1;fill:#2c3a4f;fill-opacity:0;stroke-width:0.65809768"
   d="M 164.32699,486.10551 73.180463,460.57944 72.960939,458.35348 C 72.840202,457.12919 63.658127,353.6617 52.556329,228.42571 L 32.371241,0.72390746 255.74319,0.55842372 C 378.59776,0.4674077 479.228,0.50580592 479.36595,0.64375313 479.68606,0.96387021 439.6439,453.80773 438.94572,457.76321 l -0.52104,2.9519 -91.14653,25.48963 c -50.13059,14.01931 -91.2946,25.47551 -91.47558,25.45824 -0.18098,-0.0172 -41.34499,-11.51813 -91.47558,-25.55747 z m 150.00614,-87.65698 c 31.69303,-8.73937 57.71292,-15.96075 57.82199,-16.04749 0.10906,-0.0867 1.06641,-9.74251 2.12744,-21.45727 5.1794,-57.18544 23.66911,-264.936123 23.66911,-265.946494 0,-1.094436 -7.16512,-1.152546 -142.1181,-1.152546 H 113.71548 l 0.31193,3.125964 c 0.17157,1.71928 0.89464,12.010286 1.60683,22.868896 0.71219,10.85861 1.4751,21.6427 1.69536,23.96465 l 0.40048,4.22171 109.18021,-0.42783 109.1802,-0.42782 -0.0141,2.78709 c -0.0185,3.65131 -3.78369,53.87173 -4.0549,54.08451 -0.20018,0.15705 -193.91875,2.39885 -203.72533,2.3576 l -4.77117,-0.0201 0.006,2.13882 c 0.003,1.17635 1.18798,13.37136 2.63239,27.10003 1.44442,13.72867 2.62621,25.0361 2.62621,25.12762 0,0.0915 44.74007,-0.009 99.42237,-0.22356 l 99.42237,-0.38997 -0.38433,2.24435 c -0.21139,1.2344 -2.17443,18.68035 -4.36233,38.76878 -2.18789,20.08843 -4.18431,36.7004 -4.43649,36.91548 -0.25218,0.21509 -14.43049,4.1481 -31.50736,8.74003 l -31.04885,8.34897 -31.14138,-8.37209 c -17.12776,-4.60465 -31.25229,-8.45115 -31.38785,-8.54777 -0.13557,-0.0966 -1.1733,-10.62724 -2.30608,-23.40136 l -2.05935,-23.22568 -28.77967,-0.17143 -28.77967,-0.17143 0.38215,3.79097 c 0.21019,2.08503 2.05687,22.58224 4.10375,45.54935 l 3.72159,41.75839 57.2545,15.92259 c 31.48997,8.75741 57.82873,15.95278 58.53055,15.98968 0.70184,0.0369 27.20672,-7.08329 58.89975,-15.82267 z"
   id="path5102"
   inkscape:connector-curvature="0" /><path
   style="opacity:1;fill:#2c3a4f;fill-opacity:1;stroke-width:0.65809768"
   d="M 164.32699,486.10551 73.180463,460.57944 72.960939,458.35348 C 72.840202,457.12919 63.658127,353.6617 52.556329,228.42571 L 32.371241,0.72390746 255.74319,0.55842372 C 378.59776,0.4674077 479.228,0.50580592 479.36595,0.64375313 479.68606,0.96387021 439.6439,453.80773 438.94572,457.76321 l -0.52104,2.9519 -91.14653,25.48963 c -50.13059,14.01931 -91.2946,25.47551 -91.47558,25.45824 -0.18098,-0.0172 -41.34499,-11.51813 -91.47558,-25.55747 z m 150.00614,-87.65698 c 31.69303,-8.73937 57.71292,-15.96075 57.82199,-16.04749 0.10906,-0.0867 1.06641,-9.74251 2.12744,-21.45727 5.1794,-57.18544 23.66911,-264.936123 23.66911,-265.946494 0,-1.094436 -7.16512,-1.152546 -142.1181,-1.152546 H 113.71548 l 0.31193,3.125964 c 0.17157,1.71928 0.89464,12.010286 1.60683,22.868896 0.71219,10.85861 1.4751,21.6427 1.69536,23.96465 l 0.40048,4.22171 109.18021,-0.42783 109.1802,-0.42782 -0.0141,2.78709 c -0.0185,3.65131 -3.78369,53.87173 -4.0549,54.08451 -0.20018,0.15705 -193.91875,2.39885 -203.72533,2.3576 l -4.77117,-0.0201 0.006,2.13882 c 0.003,1.17635 1.18798,13.37136 2.63239,27.10003 1.44442,13.72867 2.62621,25.0361 2.62621,25.12762 0,0.0915 44.74007,-0.009 99.42237,-0.22356 l 99.42237,-0.38997 -0.38433,2.24435 c -0.21139,1.2344 -2.17443,18.68035 -4.36233,38.76878 -2.18789,20.08843 -4.18431,36.7004 -4.43649,36.91548 -0.25218,0.21509 -14.43049,4.1481 -31.50736,8.74003 l -31.04885,8.34897 -31.14138,-8.37209 c -17.12776,-4.60465 -31.25229,-8.45115 -31.38785,-8.54777 -0.13557,-0.0966 -1.1733,-10.62724 -2.30608,-23.40136 l -2.05935,-23.22568 -28.77967,-0.17143 -28.77967,-0.17143 0.38215,3.79097 c 0.21019,2.08503 2.05687,22.58224 4.10375,45.54935 l 3.72159,41.75839 57.2545,15.92259 c 31.48997,8.75741 57.82873,15.95278 58.53055,15.98968 0.70184,0.0369 27.20672,-7.08329 58.89975,-15.82267 z"
   id="path5104"
   inkscape:connector-curvature="0" /></svg>