<?xml version="1.0" encoding="UTF-8" standalone="no"?>
<svg
   xmlns:dc="http://purl.org/dc/elements/1.1/"
   xmlns:cc="http://creativecommons.org/ns#"
   xmlns:rdf="http://www.w3.org/1999/02/22-rdf-syntax-ns#"
   xmlns:svg="http://www.w3.org/2000/svg"
   xmlns="http://www.w3.org/2000/svg"
   xmlns:sodipodi="http://sodipodi.sourceforge.net/DTD/sodipodi-0.dtd"
   xmlns:inkscape="http://www.inkscape.org/namespaces/inkscape"
   enable-background="new 0 0 24 24"
   height="24px"
   id="Layer_1"
   version="1.1"
   viewBox="0 0 24 24"
   width="24px"
   xml:space="preserve"
   sodipodi:docname="email-logo.svg"
   inkscape:version="0.92.4 (5da689c313, 2019-01-14)"><metadata
     id="metadata5134"><rdf:RDF><cc:Work
         rdf:about=""><dc:format>image/svg+xml</dc:format><dc:type
           rdf:resource="http://purl.org/dc/dcmitype/StillImage" /></cc:Work></rdf:RDF></metadata><defs
     id="defs5132" /><sodipodi:namedview
     pagecolor="#ffffff"
     bordercolor="#666666"
     borderopacity="1"
     objecttolerance="10"
     gridtolerance="10"
     guidetolerance="10"
     inkscape:pageopacity="0"
     inkscape:pageshadow="2"
     inkscape:window-width="2400"
     inkscape:window-height="1271"
     id="namedview5130"
     showgrid="false"
     inkscape:zoom="9.8333333"
     inkscape:cx="12"
     inkscape:cy="12"
     inkscape:window-x="-9"
     inkscape:window-y="-9"
     inkscape:window-maximized="1"
     inkscape:current-layer="Layer_1" /><path
     clip-rule="evenodd"
     d="M11.984,13C10.031,13-0.031,4.891-0.031,4.891V4c0-1.104,0.896-2,2.002-2h20.026  C23.104,2,24,2.896,24,4l-0.016,1C23.984,5,14.031,13,11.984,13z M11.984,15.75c2.141,0,12-7.75,12-7.75L24,20  c0,1.104-0.896,2-2.003,2H1.971c-1.105,0-2.002-0.896-2.002-2l0.016-12C-0.016,8,10.031,15.75,11.984,15.75z"
     fill-rule="evenodd"
     id="path5127" /><path
     style="opacity:1;fill:#2c3a4f;fill-opacity:1;stroke-width:0.10169491"
     d="M 1.1694915,21.765499 C 0.70925049,21.526132 0.40044884,21.207129 0.19220778,20.755932 0.01633445,20.374866 0.00432566,19.961225 0.00223342,14.21229 L 0,8.0754283 0.48305085,8.4425251 C 5.3899561,12.171551 9.9981692,15.213006 11.417781,15.659529 c 0.721453,0.226924 1.073699,0.140658 2.514422,-0.615787 1.753224,-0.920521 6.026426,-3.85183 9.152543,-6.278413 l 0.762712,-0.5920391 0.06767,5.8845411 c 0.04245,3.691385 0.03088,6.054273 -0.03105,6.339954 -0.124942,0.576342 -0.495887,1.065683 -1.004557,1.325188 C 22.490849,21.921255 22.2664,21.925411 11.978628,21.924797 2.6603133,21.924241 1.4401372,21.906259 1.1694915,21.765499 Z"
     id="path5136"
     inkscape:connector-curvature="0" /><path
     style="opacity:1;fill:#2c3a4f;fill-opacity:1;stroke-width:0.10169491"
     d="M 11.286181,12.74449 C 9.815292,12.128878 7.4289222,10.536075 3.3559322,7.4513775 2.3211864,6.667708 1.1427966,5.7567689 0.73728814,5.4270684 L 0,4.8276131 V 4.2715572 C 0,3.6267705 0.20173792,3.0794815 0.59014046,2.6705821 1.170194,2.0599177 0.47932159,2.0949153 11.954157,2.0949153 c 11.572557,0 10.866054,-0.037459 11.485354,0.608951 0.352293,0.3677152 0.551362,1.1091718 0.484465,1.8044505 l -0.05119,0.5320457 -1.894019,1.4590233 c -3.962429,3.0523849 -6.95107,5.1121862 -8.581783,5.9146482 -1.198736,0.589889 -1.41139,0.623181 -2.110801,0.330456 z"
     id="path5138"
     inkscape:connector-curvature="0" /></svg>