<?xml version="1.0" encoding="UTF-8" standalone="no"?>
<!-- Generator: Adobe Illustrator 16.0.0, SVG Export Plug-In . SVG Version: 6.00 Build 0)  -->

<svg
   xmlns:dc="http://purl.org/dc/elements/1.1/"
   xmlns:cc="http://creativecommons.org/ns#"
   xmlns:rdf="http://www.w3.org/1999/02/22-rdf-syntax-ns#"
   xmlns:svg="http://www.w3.org/2000/svg"
   xmlns="http://www.w3.org/2000/svg"
   xmlns:sodipodi="http://sodipodi.sourceforge.net/DTD/sodipodi-0.dtd"
   xmlns:inkscape="http://www.inkscape.org/namespaces/inkscape"
   version="1.1"
   id="Capa_1"
   x="0px"
   y="0px"
   width="438.549px"
   height="438.549px"
   viewBox="0 0 438.549 438.549"
   style="enable-background:new 0 0 438.549 438.549;"
   xml:space="preserve"
   sodipodi:docname="github.svg"
   inkscape:version="0.92.4 (5da689c313, 2019-01-14)"><metadata
   id="metadata5220"><rdf:RDF><cc:Work
       rdf:about=""><dc:format>image/svg+xml</dc:format><dc:type
         rdf:resource="http://purl.org/dc/dcmitype/StillImage" /></cc:Work></rdf:RDF></metadata><defs
   id="defs5218" /><sodipodi:namedview
   pagecolor="#ffffff"
   bordercolor="#666666"
   borderopacity="1"
   objecttolerance="10"
   gridtolerance="10"
   guidetolerance="10"
   inkscape:pageopacity="0"
   inkscape:pageshadow="2"
   inkscape:window-width="2400"
   inkscape:window-height="1271"
   id="namedview5216"
   showgrid="false"
   inkscape:zoom="0.53813826"
   inkscape:cx="219.27451"
   inkscape:cy="219.27451"
   inkscape:window-x="-9"
   inkscape:window-y="-9"
   inkscape:window-maximized="1"
   inkscape:current-layer="Capa_1" />
<g
   id="g5183">
	<path
   d="M409.132,114.573c-19.608-33.596-46.205-60.194-79.798-79.8C295.736,15.166,259.057,5.365,219.271,5.365   c-39.781,0-76.472,9.804-110.063,29.408c-33.596,19.605-60.192,46.204-79.8,79.8C9.803,148.168,0,184.854,0,224.63   c0,47.78,13.94,90.745,41.827,128.906c27.884,38.164,63.906,64.572,108.063,79.227c5.14,0.954,8.945,0.283,11.419-1.996   c2.475-2.282,3.711-5.14,3.711-8.562c0-0.571-0.049-5.708-0.144-15.417c-0.098-9.709-0.144-18.179-0.144-25.406l-6.567,1.136   c-4.187,0.767-9.469,1.092-15.846,1c-6.374-0.089-12.991-0.757-19.842-1.999c-6.854-1.231-13.229-4.086-19.13-8.559   c-5.898-4.473-10.085-10.328-12.56-17.556l-2.855-6.57c-1.903-4.374-4.899-9.233-8.992-14.559   c-4.093-5.331-8.232-8.945-12.419-10.848l-1.999-1.431c-1.332-0.951-2.568-2.098-3.711-3.429c-1.142-1.331-1.997-2.663-2.568-3.997   c-0.572-1.335-0.098-2.43,1.427-3.289c1.525-0.859,4.281-1.276,8.28-1.276l5.708,0.853c3.807,0.763,8.516,3.042,14.133,6.851   c5.614,3.806,10.229,8.754,13.846,14.842c4.38,7.806,9.657,13.754,15.846,17.847c6.184,4.093,12.419,6.136,18.699,6.136   c6.28,0,11.704-0.476,16.274-1.423c4.565-0.952,8.848-2.383,12.847-4.285c1.713-12.758,6.377-22.559,13.988-29.41   c-10.848-1.14-20.601-2.857-29.264-5.14c-8.658-2.286-17.605-5.996-26.835-11.14c-9.235-5.137-16.896-11.516-22.985-19.126   c-6.09-7.614-11.088-17.61-14.987-29.979c-3.901-12.374-5.852-26.648-5.852-42.826c0-23.035,7.52-42.637,22.557-58.817   c-7.044-17.318-6.379-36.732,1.997-58.24c5.52-1.715,13.706-0.428,24.554,3.853c10.85,4.283,18.794,7.952,23.84,10.994   c5.046,3.041,9.089,5.618,12.135,7.708c17.705-4.947,35.976-7.421,54.818-7.421s37.117,2.474,54.823,7.421l10.849-6.849   c7.419-4.57,16.18-8.758,26.262-12.565c10.088-3.805,17.802-4.853,23.134-3.138c8.562,21.509,9.325,40.922,2.279,58.24   c15.036,16.18,22.559,35.787,22.559,58.817c0,16.178-1.958,30.497-5.853,42.966c-3.9,12.471-8.941,22.457-15.125,29.979   c-6.191,7.521-13.901,13.85-23.131,18.986c-9.232,5.14-18.182,8.85-26.84,11.136c-8.662,2.286-18.415,4.004-29.263,5.146   c9.894,8.562,14.842,22.077,14.842,40.539v60.237c0,3.422,1.19,6.279,3.572,8.562c2.379,2.279,6.136,2.95,11.276,1.995   c44.163-14.653,80.185-41.062,108.068-79.226c27.88-38.161,41.825-81.126,41.825-128.906   C438.536,184.851,428.728,148.168,409.132,114.573z"
   id="path5181" />
</g>
<g
   id="g5185">
</g>
<g
   id="g5187">
</g>
<g
   id="g5189">
</g>
<g
   id="g5191">
</g>
<g
   id="g5193">
</g>
<g
   id="g5195">
</g>
<g
   id="g5197">
</g>
<g
   id="g5199">
</g>
<g
   id="g5201">
</g>
<g
   id="g5203">
</g>
<g
   id="g5205">
</g>
<g
   id="g5207">
</g>
<g
   id="g5209">
</g>
<g
   id="g5211">
</g>
<g
   id="g5213">
</g>
<path
   style="opacity:1;fill:#2c3a4f;fill-opacity:1;stroke-width:1.85825849"
   d="M 135.94343,426.58484 C 62.302562,396.67407 8.8559182,324.2146 2.1790668,245.23583 -0.85927416,209.29607 4.0494584,174.6303 16.623553,143.22799 44.416558,73.818259 109.68016,21.31551 182.93659,9.4337774 300.79133,-9.6815135 410.27145,66.506478 433.91258,184.08973 c 3.45413,17.17972 4.02436,57.16822 1.07409,75.32316 -10.10669,62.19322 -48.65469,119.33994 -102.58586,152.08175 -14.55028,8.83353 -37.13026,18.87606 -45.01474,20.02049 -11.24692,1.63248 -11.3364,1.30716 -12.43403,-45.20439 -0.891,-37.75663 -1.42213,-43.27791 -4.89964,-50.93401 -2.14515,-4.7228 -4.8449,-9.17073 -5.99944,-9.88426 -3.32338,-2.05397 -0.43853,-4.75705 5.07699,-4.75705 8.35766,0 32.11762,-7.32685 43.59123,-13.44221 15.9532,-8.50299 25.95653,-18.24951 33.53798,-32.67705 9.03273,-17.18932 12.87624,-34.21024 13.08418,-57.94322 0.20478,-23.37293 -2.8787,-35.05195 -13.65727,-51.72851 -7.312,-11.31307 -7.44591,-11.81217 -5.37544,-20.03477 2.38136,-9.4572 1.16582,-31.18192 -2.35566,-42.10148 -1.53089,-4.747068 -3.64679,-7.36239 -6.54499,-8.08979 -6.40913,-1.608593 -27.5891,5.56243 -43.75955,14.81593 l -14.31658,8.19262 -11.69904,-2.95066 c -16.37726,-4.13058 -68.44325,-4.10385 -84.90933,0.0436 l -11.88775,2.99427 -8.61405,-5.30028 c -18.81193,-11.57509 -46.18684,-20.619538 -51.61461,-17.05304 -6.117189,4.019508 -10.008994,36.71322 -6.061934,50.92424 1.758824,6.33247 1.347877,7.67939 -5.643011,18.49566 -10.593753,16.39059 -13.855766,28.45034 -13.757841,50.86309 0.103523,23.69659 2.98432,37.12069 12.021488,56.01862 8.560209,17.90053 18.268118,27.37235 37.850258,36.92975 13.57368,6.62487 31.64394,12.04324 40.1642,12.04324 7.1342,0 7.53988,1.41685 2.52259,8.81023 -2.48192,3.65731 -5.01855,9.81376 -5.63694,13.68096 -1.27404,7.9674 -5.26243,10.15282 -22.15127,12.13777 -17.45098,2.05102 -28.70555,-4.32598 -41.88398,-23.73209 -9.082074,-13.37395 -22.685281,-22.00258 -34.72908,-22.02899 -12.623827,-0.0277 -12.172203,3.96333 1.958391,17.30624 9.110536,8.6027 14.068684,15.32242 19.785651,26.81527 12.127208,24.37938 25.731588,31.28482 58.921258,29.90779 l 15.55844,-0.64552 -2.7e-4,22.69829 c -2.4e-4,20.53913 -0.34218,22.88126 -3.59462,24.62193 -5.41975,2.90056 -9.08213,2.33224 -23.98897,-3.72246 z"
   id="path5222"
   inkscape:connector-curvature="0" /></svg>