<?xml version="1.0" encoding="UTF-8" standalone="no"?>
<svg
   xmlns:dc="http://purl.org/dc/elements/1.1/"
   xmlns:cc="http://creativecommons.org/ns#"
   xmlns:rdf="http://www.w3.org/1999/02/22-rdf-syntax-ns#"
   xmlns:svg="http://www.w3.org/2000/svg"
   xmlns="http://www.w3.org/2000/svg"
   xmlns:sodipodi="http://sodipodi.sourceforge.net/DTD/sodipodi-0.dtd"
   xmlns:inkscape="http://www.inkscape.org/namespaces/inkscape"
   height="32px"
   id="Layer_1"
   style="enable-background:new 0 0 32 32;"
   version="1.1"
   viewBox="0 0 32 32"
   width="32px"
   xml:space="preserve"
   sodipodi:docname="hamburger.svg"
   inkscape:version="0.92.4 (5da689c313, 2019-01-14)"><metadata
     id="metadata5240"><rdf:RDF><cc:Work
         rdf:about=""><dc:format>image/svg+xml</dc:format><dc:type
           rdf:resource="http://purl.org/dc/dcmitype/StillImage" /></cc:Work></rdf:RDF></metadata><defs
     id="defs5238" /><sodipodi:namedview
     pagecolor="#ffffff"
     bordercolor="#666666"
     borderopacity="1"
     objecttolerance="10"
     gridtolerance="10"
     guidetolerance="10"
     inkscape:pageopacity="0"
     inkscape:pageshadow="2"
     inkscape:window-width="2400"
     inkscape:window-height="1271"
     id="namedview5236"
     showgrid="false"
     inkscape:zoom="7.375"
     inkscape:cx="16"
     inkscape:cy="16"
     inkscape:window-x="-9"
     inkscape:window-y="-9"
     inkscape:window-maximized="1"
     inkscape:current-layer="Layer_1" /><path
     d="M4,10h24c1.104,0,2-0.896,2-2s-0.896-2-2-2H4C2.896,6,2,6.896,2,8S2.896,10,4,10z M28,14H4c-1.104,0-2,0.896-2,2  s0.896,2,2,2h24c1.104,0,2-0.896,2-2S29.104,14,28,14z M28,22H4c-1.104,0-2,0.896-2,2s0.896,2,2,2h24c1.104,0,2-0.896,2-2  S29.104,22,28,22z"
     id="path5233" /><path
     style="opacity:1;fill:#2c3a4f;fill-opacity:1;stroke-width:0.13559322"
     d="M 3.1594278,9.6976043 C 2.5788499,9.4102216 2.0303101,8.5829508 2.0368762,8.0046476 2.0436574,7.4073993 2.5516209,6.6079177 3.1030514,6.3265988 3.6435555,6.0508542 3.8004866,6.0474576 16,6.0474576 c 12.199513,0 12.356445,0.0034 12.896949,0.2791412 0.551431,0.2813189 1.059394,1.0808005 1.066175,1.6780488 0.0067,0.5864898 -0.543862,1.4106115 -1.132728,1.6956767 C 28.260786,9.9760673 28.095607,9.9796597 15.991089,9.979554 3.8473929,9.9794481 3.7233074,9.9767215 3.1594278,9.6976043 Z"
     id="path5242"
     inkscape:connector-curvature="0" /><path
     style="opacity:1;fill:#2c3a4f;fill-opacity:1;stroke-width:0.13559322"
     d="M 3.1594278,17.697604 C 2.5788499,17.410222 2.0303101,16.582951 2.0368762,16.004648 2.0436574,15.407399 2.5516209,14.607918 3.1030514,14.326599 3.6435555,14.050854 3.8004866,14.047458 16,14.047458 c 12.199513,0 12.356445,0.0034 12.896949,0.279141 0.551431,0.281319 1.059394,1.0808 1.066175,1.678049 0.0067,0.586489 -0.543862,1.410611 -1.132728,1.695676 -0.56961,0.275743 -0.734789,0.279336 -12.839307,0.27923 -12.1436961,-1.06e-4 -12.2677816,-0.0028 -12.8316612,-0.28195 z"
     id="path5244"
     inkscape:connector-curvature="0" /><path
     style="opacity:1;fill:#2c3a4f;fill-opacity:1;stroke-width:0.13559322"
     d="M 3.1594278,25.697604 C 2.5788499,25.410222 2.0303101,24.582951 2.0368762,24.004648 2.0436574,23.407399 2.5516209,22.607918 3.1030514,22.326599 3.6435555,22.050854 3.8004866,22.047458 16,22.047458 c 12.199513,0 12.356445,0.0034 12.896949,0.279141 0.551431,0.281319 1.059394,1.0808 1.066175,1.678049 0.0067,0.586489 -0.543862,1.410611 -1.132728,1.695676 -0.56961,0.275743 -0.734789,0.279336 -12.839307,0.27923 -12.1436961,-1.06e-4 -12.2677816,-0.0028 -12.8316612,-0.28195 z"
     id="path5246"
     inkscape:connector-curvature="0" /></svg>