<?xml version="1.0" encoding="UTF-8" standalone="no"?>
<svg
   xmlns:dc="http://purl.org/dc/elements/1.1/"
   xmlns:cc="http://creativecommons.org/ns#"
   xmlns:rdf="http://www.w3.org/1999/02/22-rdf-syntax-ns#"
   xmlns:svg="http://www.w3.org/2000/svg"
   xmlns="http://www.w3.org/2000/svg"
   xmlns:sodipodi="http://sodipodi.sourceforge.net/DTD/sodipodi-0.dtd"
   xmlns:inkscape="http://www.inkscape.org/namespaces/inkscape"
   height="512px"
   version="1.1"
   viewBox="0 0 512 512"
   width="512px"
   xml:space="preserve"
   id="svg5398"
   sodipodi:docname="js-logo.svg"
   inkscape:version="0.92.4 (5da689c313, 2019-01-14)"><metadata
     id="metadata5404"><rdf:RDF><cc:Work
         rdf:about=""><dc:format>image/svg+xml</dc:format><dc:type
           rdf:resource="http://purl.org/dc/dcmitype/StillImage" /></cc:Work></rdf:RDF></metadata><defs
     id="defs5402" /><sodipodi:namedview
     pagecolor="#ffffff"
     bordercolor="#666666"
     borderopacity="1"
     objecttolerance="10"
     gridtolerance="10"
     guidetolerance="10"
     inkscape:pageopacity="0"
     inkscape:pageshadow="2"
     inkscape:window-width="2400"
     inkscape:window-height="1271"
     id="namedview5400"
     showgrid="false"
     inkscape:zoom="0.4609375"
     inkscape:cx="256"
     inkscape:cy="256"
     inkscape:window-x="-9"
     inkscape:window-y="-9"
     inkscape:window-maximized="1"
     inkscape:current-layer="svg5398" /><g
     id="Layer_1"><g
       id="g5395"><path
         d="M112.155,67.644h84.212v236.019c0,106.375-50.969,143.497-132.414,143.497c-19.944,0-45.429-3.324-62.052-8.864    l9.419-68.146c11.635,3.878,26.594,6.648,43.214,6.648c35.458,0,57.621-16.068,57.621-73.687V67.644z"
         id="path5391" /><path
         d="M269.484,354.634c22.161,11.635,57.62,23.27,93.632,23.27c38.783,0,59.282-16.066,59.282-40.998    c0-22.715-17.729-36.565-62.606-52.079c-62.053-22.162-103.05-56.512-103.05-111.36c0-63.715,53.741-111.917,141.278-111.917    c42.662,0,73.132,8.313,95.295,18.838l-18.839,67.592c-14.404-7.201-41.553-17.729-77.562-17.729    c-36.567,0-54.297,17.175-54.297,36.013c0,23.824,20.499,34.349,69.256,53.188c65.928,24.378,96.4,58.728,96.4,111.915    c0,62.606-47.647,115.794-150.143,115.794c-42.662,0-84.77-11.636-105.82-23.27L269.484,354.634z"
         id="path5393" /></g></g><path
     style="opacity:1;fill:#2c3a4f;fill-opacity:1;stroke-width:2.16949153"
     d="m 31.961199,443.83225 c -6.882356,-1.08758 -16.195017,-2.96879 -20.6948,-4.18045 l -8.1814224,-2.20304 4.4236134,-32.7445 4.423613,-32.7445 6.508475,1.44713 c 36.815486,8.18576 68.063785,3.14323 80.351087,-12.96627 13.102065,-17.17768 12.823415,-13.90713 13.546675,-159.00333 l 0.66237,-132.881358 h 41.2452 41.24519 l -0.74795,137.220338 c -0.72649,133.28451 -0.88393,137.70657 -5.48893,154.17264 -12.25142,43.80724 -36.92854,69.42162 -77.66208,80.6118 -15.304548,4.2044 -61.672795,6.10939 -79.631041,3.27154 z"
     id="path5406"
     inkscape:connector-curvature="0" /><path
     style="opacity:1;fill:#2c3a4f;fill-opacity:1;stroke-width:2.16949153"
     d="m 322.21321,443.77919 c -25.01991,-3.93286 -68.3827,-17.14065 -68.3827,-20.82857 0,-1.49561 15.81313,-64.73227 16.36321,-65.43642 0.28737,-0.36786 6.28561,1.75683 13.32941,4.72153 25.80439,10.8609 47.44969,15.18481 76.76141,15.33398 26.19888,0.13343 27.7703,-0.11823 40.09402,-6.41863 17.11051,-8.74761 23.16804,-18.69284 22.08363,-36.25676 -1.37284,-22.23534 -15.68057,-33.48064 -68.31592,-53.69351 -61.6805,-23.68635 -92.65943,-56.3804 -95.42494,-100.70801 -1.34555,-21.56759 1.67684,-36.38323 11.1011,-54.41716 23.67926,-45.311757 83.15722,-69.417396 153.43638,-62.185756 26.35568,2.711967 43.67013,6.578668 59.12754,13.20448 l 9.55002,4.093615 -8.89203,32.309831 -8.89201,32.30984 -17.41514,-5.97459 c -63.47082,-21.77482 -115.04844,-9.03103 -114.48429,28.28677 0.26276,17.38092 13.80918,29.26632 50.74798,44.52539 66.70442,27.55499 88.62077,42.80344 102.82311,71.53992 10.30799,20.8568 13.51376,41.09796 10.0439,63.41702 -7.15676,46.03405 -39.71252,78.41742 -92.57975,92.08956 -20.01761,5.17679 -69.90192,7.41562 -91.07493,4.08747 z"
     id="path5408"
     inkscape:connector-curvature="0" /></svg>