<?xml version="1.0" encoding="UTF-8" standalone="no"?>
<svg
   xmlns:dc="http://purl.org/dc/elements/1.1/"
   xmlns:cc="http://creativecommons.org/ns#"
   xmlns:rdf="http://www.w3.org/1999/02/22-rdf-syntax-ns#"
   xmlns:svg="http://www.w3.org/2000/svg"
   xmlns="http://www.w3.org/2000/svg"
   xmlns:sodipodi="http://sodipodi.sourceforge.net/DTD/sodipodi-0.dtd"
   xmlns:inkscape="http://www.inkscape.org/namespaces/inkscape"
   height="48px"
   id="Layer_1"
   style="enable-background:new 0 0 48 48;"
   version="1.1"
   viewBox="0 0 48 48"
   width="48px"
   xml:space="preserve"
   sodipodi:docname="shoes.svg"
   inkscape:version="0.92.4 (5da689c313, 2019-01-14)"><metadata
     id="metadata5964"><rdf:RDF><cc:Work
         rdf:about=""><dc:format>image/svg+xml</dc:format><dc:type
           rdf:resource="http://purl.org/dc/dcmitype/StillImage" /></cc:Work></rdf:RDF></metadata><defs
     id="defs5962" /><sodipodi:namedview
     pagecolor="#ffffff"
     bordercolor="#666666"
     borderopacity="1"
     objecttolerance="10"
     gridtolerance="10"
     guidetolerance="10"
     inkscape:pageopacity="0"
     inkscape:pageshadow="2"
     inkscape:window-width="2400"
     inkscape:window-height="1271"
     id="namedview5960"
     showgrid="false"
     inkscape:zoom="4.9166667"
     inkscape:cx="24"
     inkscape:cy="24"
     inkscape:window-x="-9"
     inkscape:window-y="-9"
     inkscape:window-maximized="1"
     inkscape:current-layer="Layer_1" /><path
     d="M5.478,31.046c0,0-0.615-3.073,5.839-3.073  c0,0,9.478-2.356,13.935-9.733c4.457-7.376-0.359-4.251,14.752-1.331c0,0,1.025-0.104,0.975,0.819  c-0.053,0.922,1.742,10.348,1.076,12.601c0,0,1.074-0.102,0.408,4.148c0,0-4.508,1.59-19.62,1.129  C7.732,35.143,5.222,33.043,5.222,33.043S4.146,32.225,5.478,31.046z"
     style="fill:none;stroke:#231F20;stroke-miterlimit:10;"
     id="path5931" /><path
     d="M26.656,15.668c0,0,2.264,0.828,4.639-0.828"
     style="fill:none;stroke:#231F20;stroke-miterlimit:10;"
     id="path5933" /><path
     d="M41.342,21.906c0,0-10.27,7.067-15.182,7.232  C21.246,29.305,25,24.502,25,24.502l0.995-1.326c0,0-0.995,4.252,3.422,2.319c4.418-1.933,11.539-5.134,11.539-5.134"
     style="fill:none;stroke:#231F20;stroke-miterlimit:10;"
     id="path5935" /><path
     d="M16.792,25.605c0,0,1.026,6.93,5.448,6.846"
     style="fill:none;stroke:#231F20;stroke-miterlimit:10;"
     id="path5937" /><path
     d="M5.478,31.046c0,0,23.118,3.563,36.577-0.718"
     style="fill:none;stroke:#231F20;stroke-miterlimit:10;"
     id="path5939" /><circle
     cx="24.625"
     cy="21.857"
     r="0.479"
     style="fill:#010101;"
     id="circle5941" /><circle
     cx="23.375"
     cy="23.108"
     r="0.479"
     style="fill:#010101;"
     id="circle5943" /><circle
     cx="21.957"
     cy="24.213"
     r="0.479"
     style="fill:#010101;"
     id="circle5945" /><circle
     cx="20.292"
     cy="25.295"
     r="0.479"
     style="fill:#010101;"
     id="circle5947" /><path
     d="M34.4,26.104c0.859,1.67,1.41,3.521,1.33,5.48"
     style="fill:none;stroke:#231F20;stroke-miterlimit:10;"
     id="path5949" /><path
     d="M33.031,23.895c-2.861-3.91-6.932-6.43-6.932-6.43"
     style="fill:none;stroke:#231F20;stroke-miterlimit:10;"
     id="path5951" /><path
     d="M41.27,17.646c0,0,3.018-0.014,0.391,4.533"
     style="fill:none;stroke:#231F20;stroke-miterlimit:10;"
     id="path5953" /><path
     d="M24.791,18.854c0,0.03,0,0.069,0,0.11"
     style="fill:none;stroke:#231F20;stroke-miterlimit:10;"
     id="path5955" /><path
     d="M6.041,29.604c0,0,5.192-0.08,7.584,0.09  c0.971,0.07,2.504-0.5,3.986-1.2"
     style="fill:none;stroke:#231F20;stroke-miterlimit:10;"
     id="path5957" /><path
     style="opacity:1;fill:#2c3a4f;fill-opacity:1;stroke-width:0.20338982"
     d="M 19.932203,35.895799 C 12.277051,35.518633 6.2279245,34.444074 4.9379943,33.232248 4.3990108,32.725899 4.3118027,31.628966 4.779661,31.240678 c 0.1677966,-0.139259 0.3050848,-0.486494 0.3050848,-0.771633 0,-0.698585 1.4947629,-2.114234 2.573716,-2.437497 0.4568225,-0.136867 1.597669,-0.329356 2.5352152,-0.427753 1.939198,-0.203522 3.58224,-0.77828 6.432103,-2.250034 4.075907,-2.104921 6.875768,-4.789683 9.001491,-8.631452 1.757034,-3.175442 1.921359,-3.380319 2.709525,-3.37819 0.35544,9.6e-4 1.679845,0.366702 2.943124,0.81276 2.199748,0.776723 5.683505,1.720883 8.278955,2.243746 0.67094,0.135163 1.438368,0.417605 1.705395,0.627648 0.267026,0.210043 0.603805,0.381896 0.748397,0.381896 0.45864,0 1.105977,1.037399 1.105977,1.772401 0,0.385327 -0.240266,1.301165 -0.533925,2.035196 -0.520291,1.300524 -0.528081,1.385989 -0.305084,3.347064 0.125861,1.106854 0.22884,2.761206 0.22884,3.676338 0,1.043608 0.122912,1.985721 0.329717,2.527227 0.256887,0.672654 0.29773,1.204686 0.184906,2.408692 -0.170097,1.815196 -0.05325,1.731177 -3.067101,2.205362 -4.380449,0.689201 -12.322208,0.892803 -20.023794,0.51335 z m 14.545845,-0.798862 c 3.619654,-0.235542 7.202785,-0.709973 7.483703,-0.990891 0.253981,-0.253981 0.405178,-2.704642 0.186488,-3.022643 -0.14132,-0.205493 -0.616005,-0.154883 -2.298761,0.245093 -7.65818,1.82028 -20.140082,1.982695 -32.1206644,0.417957 -1.1745763,-0.153407 -2.2119863,-0.203231 -2.3053556,-0.110721 -0.093369,0.09251 -0.139132,0.38432 -0.1016949,0.648467 0.2821066,1.990474 17.0032099,3.603577 29.1562849,2.812738 z m -4.186157,-3.263462 c 1.838504,-0.121047 3.714775,-0.285733 4.169491,-0.365969 l 0.826754,-0.145885 -0.05363,-0.904878 c -0.06771,-1.142509 -0.806931,-3.650641 -1.075947,-3.650641 -0.111437,0 -0.844529,0.323264 -1.629095,0.718365 -3.677126,1.851771 -7.222097,2.522407 -8.463534,1.601128 -0.324156,-0.240559 -0.653994,-0.739851 -0.75709,-1.146045 -0.154401,-0.608336 -0.08731,-0.920215 0.433316,-2.014408 0.3388,-0.712048 1.140694,-1.981074 1.781986,-2.820057 l 1.165985,-1.525424 -0.16656,1.016949 c -0.388075,2.369466 -0.09891,3.050333 1.231146,2.898789 0.807107,-0.09196 4.296915,-1.479741 4.484564,-1.783362 0.169851,-0.274825 -2.583225,-3.064831 -4.441177,-4.500751 l -1.804691,-1.394757 -0.818633,1.271396 c -1.136269,1.76471 -3.560976,4.093145 -5.852742,5.620362 -1.062712,0.708183 -1.96441,1.317686 -2.003773,1.35445 -0.1171,0.109367 0.599457,2.155222 1.116624,3.188092 0.610598,1.219466 1.718122,2.331211 2.566417,2.576197 0.918512,0.265265 5.313268,0.268315 9.290589,0.0065 z M 18.718345,31.11529 C 18.363139,30.710733 17.92908,30.078942 17.753768,29.71131 l -0.318748,-0.668422 -1.298424,0.488725 c -1.223207,0.460414 -1.550782,0.488726 -5.654659,0.488726 -4.1773115,0 -4.9879427,0.110084 -4.4540457,0.604863 0.2896429,0.268421 8.9436417,1.13596 11.9423307,1.197185 l 1.393951,0.02846 z m 19.722333,-0.287221 c 1.062712,-0.223429 2.229661,-0.50367 2.59322,-0.622756 l 0.661017,-0.216521 v -1.70575 c 0,-0.938163 -0.104666,-2.626201 -0.23259,-3.751197 l -0.232591,-2.045447 -0.530121,0.349816 c -0.377748,0.249268 -4.604945,2.799568 -5.656497,3.412608 -0.0229,0.01335 0.179528,0.707231 0.449831,1.541961 0.270305,0.83473 0.546342,1.952437 0.613416,2.483793 0.06707,0.531356 0.184987,0.964668 0.262031,0.962915 0.07704,-0.0017 1.009572,-0.185992 2.072284,-0.409422 z M 15.796326,28.805365 c 0.628153,-0.220778 1.175431,-0.43475 1.216175,-0.475493 0.04074,-0.04074 -0.02592,-0.386378 -0.148141,-0.768077 -0.122221,-0.381699 -0.258116,-0.811186 -0.30199,-0.954416 -0.06023,-0.196619 -0.275693,-0.160465 -0.879504,0.147576 -1.694304,0.86437 -3.64935,1.470163 -5.310133,1.645407 -0.9509291,0.10034 -2.0949969,0.316384 -2.542373,0.480096 -0.765935,0.280286 -0.590531,0.298496 3.00523,0.31199 3.304173,0.0124 3.972509,-0.03975 4.960736,-0.387083 z m 12.188089,-0.415866 c 1.60582,-0.40974 5.950226,-2.394807 8.299706,-3.792342 3.713947,-2.209157 4.818539,-2.97605 4.747874,-3.296338 -0.04021,-0.18223 -0.204954,-0.304807 -0.366108,-0.272393 -0.161154,0.03241 -2.90148,1.214907 -6.089616,2.627763 -6.153712,2.727082 -7.264849,3.053918 -8.230751,2.421035 -0.279704,-0.183269 -0.56569,-0.560873 -0.635526,-0.839119 -0.06984,-0.278246 -0.199536,-0.505902 -0.288224,-0.505902 -0.221042,0 -0.907985,1.195085 -1.206011,2.098114 -0.326464,0.989197 -0.126207,1.517555 0.661571,1.745483 0.978256,0.283039 1.356584,0.260355 3.107085,-0.186301 z m 9.131536,-6.750404 c 2.704753,-1.195623 3.746058,-1.748688 3.669252,-1.948838 -0.05898,-0.153703 -0.108638,-0.615193 -0.110351,-1.025536 -0.0016,-0.410342 -0.07397,-0.857587 -0.160568,-0.993877 -0.0866,-0.13629 -1.375249,-0.522386 -2.863664,-0.857992 -1.488417,-0.335606 -3.457448,-0.839333 -4.375625,-1.119394 l -1.669411,-0.509202 -0.904487,0.44787 c -0.5946,0.294424 -1.392273,0.47291 -2.328216,0.520957 -1.326293,0.06809 -1.932203,0.339192 -1.932203,0.864538 0,0.07693 0.663559,0.640227 1.474576,1.251772 1.494891,1.127217 5.033899,4.548046 5.033899,4.8658 0,0.315856 0.36099,0.186242 4.166798,-1.496098 z m 5.13273,-2.038816 c 0.07614,-0.675531 0.01446,-0.982662 -0.250593,-1.247712 -0.193379,-0.193379 -0.394521,-0.308676 -0.446982,-0.256215 -0.05246,0.05246 -0.03016,0.704401 0.04955,1.448755 0.16201,1.512837 0.480665,1.539967 0.648025,0.05517 z M 30,15.086956 30.610169,14.815988 30,14.569803 c -1.240841,-0.500641 -1.851447,-0.496235 -2.210195,0.01595 -0.182699,0.260838 -0.332178,0.545411 -0.332178,0.632385 0,0.258756 1.883103,0.161592 2.542373,-0.131182 z"
     id="path5966"
     inkscape:connector-curvature="0" /></svg>