<?xml version="1.0" encoding="UTF-8" standalone="no"?>
<svg
   xmlns:dc="http://purl.org/dc/elements/1.1/"
   xmlns:cc="http://creativecommons.org/ns#"
   xmlns:rdf="http://www.w3.org/1999/02/22-rdf-syntax-ns#"
   xmlns:svg="http://www.w3.org/2000/svg"
   xmlns="http://www.w3.org/2000/svg"
   xmlns:sodipodi="http://sodipodi.sourceforge.net/DTD/sodipodi-0.dtd"
   xmlns:inkscape="http://www.inkscape.org/namespaces/inkscape"
   viewBox="0 0 64 64"
   version="1.1"
   id="svg5980"
   sodipodi:docname="vinyl-record.svg"
   inkscape:version="0.92.4 (5da689c313, 2019-01-14)">
  <metadata
     id="metadata5986">
    <rdf:RDF>
      <cc:Work
         rdf:about="">
        <dc:format>image/svg+xml</dc:format>
        <dc:type
           rdf:resource="http://purl.org/dc/dcmitype/StillImage" />
      </cc:Work>
    </rdf:RDF>
  </metadata>
  <defs
     id="defs5984" />
  <sodipodi:namedview
     pagecolor="#ffffff"
     bordercolor="#666666"
     borderopacity="1"
     objecttolerance="10"
     gridtolerance="10"
     guidetolerance="10"
     inkscape:pageopacity="0"
     inkscape:pageshadow="2"
     inkscape:window-width="2400"
     inkscape:window-height="1271"
     id="namedview5982"
     showgrid="false"
     inkscape:zoom="3.6875"
     inkscape:cx="32"
     inkscape:cy="32"
     inkscape:window-x="-9"
     inkscape:window-y="-9"
     inkscape:window-maximized="1"
     inkscape:current-layer="svg5980" />
  <path
     d="M40.056 33.31c-.225-.272.54-.543.72-.543.18 0 1.305 3.164 1.305 3.164s1.8-5.333-.45-9.04c-2.25-3.705-7.783-4.976-9.63-4.88-8.73.452-11.792 9.492-9.45 14.69 2.34 5.198 5.805 5.334 5.94 5.334.135 0-.27-1.627-.27-1.627s.585 0 .945.045.45 1.582.54 1.898c.09.316 1.755.316 1.755.316s-.495-2.17-.585-2.44c-.09-.272.585-.363.81-.317.225.044.765 2.485.81 2.756.045.27 1.575.045 1.71-.045s-.9-3.39-.9-3.615.765-.407.9-.362c.135.045 1.125 3.616 1.125 3.616s1.53-.363 1.755-.498c.225-.136-1.125-3.75-1.215-3.978-.09-.226.54-.407.765-.362.225.045 1.305 3.435 1.44 3.57.135.137 1.035-.722 1.17-.813.135-.09-1.485-4.43-1.53-4.792-.045-.362.27-.588.63-.588s1.665 4.384 1.755 4.52c.09.136 1.305-2.034 1.305-2.17 0-.134-1.124-3.57-1.35-3.84zm-8.008-.055c-.46-.004-1.3-.24-1.303-1.26-.003-.908.742-1.216 1.218-1.247.49-.033 1.282.15 1.293 1.323.007.806-.75 1.19-1.208 1.185zM31.054.088C18.904.902-.08 8.74 0 31.908c.09 25.944 21.513 32 33.214 32.09 11.7.09 30.964-9.672 30.784-30.192C63.738 3.936 43.558-.75 31.054.088zm18.91 39.524c1.768-4.97 1.94-11.113 2.005-11.39.064-.28.847-.123.997.045.09.1.677 6.02-1.943 11.567s-6.977 8.348-7.336 8.38c-.36.032-.627-.942-.627-.942s5.137-2.69 6.905-7.66zM7.607 25.445s.855-6.69 7.066-11.752c6.21-5.062 10.08-5.514 10.216-5.514s.45.632.225.858-6.256 1.808-10.126 5.514-6.21 10.938-6.3 11.21c-.09.27-.99-.046-1.08-.317zm7.02-1.537c-2.204 4.79-2.924 10.893-3.014 11.164-.09.27-.855.045-.99-.136-.08-.11-.135-6.057 2.97-11.345s7.696-7.683 8.056-7.683c.36 0 .54.994.54.994s-5.356 2.217-7.56 7.008zm17.858 20.83C27.826 44.7 19.3 42.29 19.264 31.962c-.033-9.222 7.523-12.342 12.36-12.666 4.977-.333 13.01 1.532 13.113 13.422.072 8.167-7.596 12.053-12.253 12.017zm18.35 5.05c-5.73 5.604-9.546 6.403-9.68 6.415-.134.012-.505-.59-.3-.835s6.068-2.366 9.59-6.406c3.524-4.04 5.207-11.455 5.273-11.733.065-.28.99-.045 1.104.217 0 0-.253 6.74-5.985 12.342z"
     id="path5978" />
  <path
     style="opacity:1;fill:#2c3a4f;fill-opacity:1;stroke-width:0.27118644"
     d="M 29.830508,63.723769 C 18.869622,62.350332 10.346639,57.766457 5.4352613,50.60339 1.8929338,45.437033 0.25686381,39.536087 0.244399,31.88109 0.23666224,27.129741 0.78786156,23.70098 2.1668318,19.922512 5.1938267,11.628348 12.059163,5.339917 21.515896,2.1993794 25.498498,0.87677521 28.12909,0.39636092 32.271186,0.2351837 46.807352,-0.33044739 57.409844,6.5298978 61.662959,19.253137 c 2.225228,6.656792 2.780469,16.383397 1.268762,22.225963 -0.685126,2.647937 -2.59878,6.731121 -4.218362,9.000759 -4.249169,5.954677 -11.54419,10.742113 -19.231542,12.620908 -2.148542,0.525104 -7.615992,0.878034 -9.651309,0.623002 z m 13.423729,-8.207294 c 3.399176,-1.632413 8.143905,-5.622878 10.13843,-8.526739 1.276429,-1.858373 2.606557,-4.875081 3.154256,-7.153798 0.51567,-2.145462 0.425356,-2.79187 -0.390071,-2.79187 -0.390848,0 -0.615436,0.27834 -0.820559,1.016949 -0.15533,0.559322 -0.283102,1.11767 -0.283932,1.240776 -8.14e-4,0.123105 -0.497459,1.492292 -1.103613,3.042635 -2.314025,5.918514 -5.172382,8.947423 -11.372477,12.05104 -2.113462,1.05795 -2.003165,0.967233 -1.804724,1.484361 0.225342,0.587233 0.625112,0.528724 2.48269,-0.363354 z M 44.871238,47.6273 c 1.515479,-1.042679 4.002907,-3.795959 5.183308,-5.737293 1.956768,-3.218178 3.070731,-7.375406 3.088535,-11.526175 0.0086,-2.003523 -0.04177,-2.219054 -0.5495,-2.351832 -0.691097,-0.180724 -0.692968,-0.17472 -1.081616,3.472746 -0.409492,3.843078 -1.358238,7.580453 -2.439132,9.60842 -0.912301,1.71165 -3.205975,4.159607 -5.039851,5.378853 -0.955282,0.635119 -1.082723,0.829109 -0.887992,1.35171 0.288504,0.774256 0.320737,0.770587 1.726248,-0.196429 z M 34.47146,44.633169 c 1.904893,-0.359016 4.956564,-1.836605 6.413571,-3.105383 2.672466,-2.327219 3.86269,-5.115897 3.856724,-9.036263 -0.0085,-5.585656 -1.635716,-9.155751 -5.232762,-11.480635 -5.100261,-3.296457 -13.755989,-1.923962 -17.622223,2.794267 -1.823433,2.22526 -2.450114,4.029291 -2.581357,7.430964 -0.128314,3.325744 0.24151,5.163751 1.510957,7.509392 2.259497,4.175023 8.489512,6.861214 13.65509,5.887658 z M 11.781569,34.80678 c 0.07199,-0.335594 0.331358,-1.647458 0.576381,-2.915255 1.402009,-7.254278 3.449245,-10.840609 7.812972,-13.686698 1.136501,-0.741244 2.066366,-1.507785 2.066366,-1.703426 0,-1.229022 -2.396841,-0.09697 -4.984402,2.354188 -3.187047,3.019039 -5.323726,6.911171 -6.273991,11.428576 -0.498788,2.371154 -0.529547,4.765186 -0.06364,4.953183 0.612431,0.247121 0.733896,0.186752 0.866314,-0.430568 z M 9.0764776,25.179661 c 0.3258617,-1.305675 1.7921484,-4.472178 3.0903954,-6.673827 2.213689,-3.754111 5.306392,-6.218451 10.477195,-8.34848 1.848625,-0.7615107 2.461699,-1.1418272 2.527336,-1.5678164 0.118881,-0.7715503 -0.402621,-0.7254877 -2.841161,0.2509511 -3.853251,1.5429163 -8.468446,4.9261313 -10.820348,7.9319633 -2.2500856,2.875707 -4.2848555,7.531166 -3.8205266,8.741188 0.2717242,0.708102 1.1817155,0.489 1.3871092,-0.333979 z"
     id="path5988"
     inkscape:connector-curvature="0" />
  <path
     style="opacity:1;fill:#2c3a4f;fill-opacity:1;stroke-width:0.27118644"
     d="m 32.411006,41.67925 c -0.225501,-1.334724 -0.740734,-2.062945 -1.306088,-1.845998 -0.349986,0.134302 -0.382891,0.333683 -0.174809,1.059221 0.38029,1.325993 0.321127,1.575324 -0.373807,1.575324 -0.502707,0 -0.68094,-0.205654 -0.881356,-1.01695 -0.191056,-0.773409 -0.405532,-1.038775 -0.895592,-1.108089 -0.580108,-0.08205 -0.632073,-0.0073 -0.521026,0.749295 0.109879,0.748651 0.06179,0.821489 -0.44037,0.666954 -1.962472,-0.603936 -3.579092,-2.115488 -4.836239,-4.52192 -0.821818,-1.573126 -0.879979,-1.863911 -0.879343,-4.396409 6.25e-4,-2.4857 0.07284,-2.864316 0.865935,-4.539865 1.5755,-3.328524 4.24649,-5.369588 7.830074,-5.98343 1.504579,-0.257723 2.061451,-0.231969 3.592783,0.166159 5.079863,1.320702 7.801524,3.975508 8.11804,7.918623 0.150403,1.873701 -0.122998,4.743598 -0.451898,4.743598 -0.114811,0 -0.356929,-0.494587 -0.53804,-1.099083 -0.330679,-1.103708 -0.941988,-1.620572 -1.388542,-1.174018 -0.138669,0.138669 0.05986,1.079734 0.471298,2.234057 0.703409,1.973466 0.705665,2.004171 0.214247,2.916679 -0.273156,0.507219 -0.568342,0.850521 -0.65597,0.762894 -0.08763,-0.08763 -0.464628,-1.03412 -0.837779,-2.103316 -0.430991,-1.234927 -0.825473,-1.943993 -1.081522,-1.943993 -0.663851,0 -0.627282,0.839088 0.136522,3.132586 0.579069,1.738784 0.658062,2.253958 0.394333,2.571732 -0.375156,0.452036 -0.805755,0.524909 -0.805755,0.136364 0,-0.708451 -1.170556,-3.264411 -1.495006,-3.264411 -0.683448,0 -0.717117,0.541122 -0.137821,2.215043 0.65438,1.890888 0.576272,2.395127 -0.371013,2.395127 -0.530815,0 -0.702857,-0.177768 -0.852968,-0.881356 -0.10342,-0.484746 -0.353561,-1.284199 -0.555869,-1.776562 -0.317418,-0.772513 -0.440671,-0.856224 -0.899289,-0.610779 -0.523293,0.280058 -0.523797,0.311211 -0.03278,2.028222 0.435167,1.521703 0.447196,1.763552 0.09445,1.898915 -0.85091,0.326525 -1.129425,0.133431 -1.3048,-0.904614 z m 0.754121,-8.999988 c 0.38873,-0.62129 0.01394,-1.805996 -0.636662,-2.01249 -1.259004,-0.399592 -2.457244,1.356992 -1.546748,2.267487 0.450016,0.450016 1.84417,0.287195 2.18341,-0.254997 z"
     id="path5990"
     inkscape:connector-curvature="0" />
</svg>
